<?xml version="1.0" standalone="no"?><svg xmlns="http://www.w3.org/2000/svg" viewBox="100%"><path fill="#ff8303" fill-opacity="1" d="M0,64L24,106.7C48,149,96,235,144,266.7C192,299,240,277,288,234.7C336,192,384,128,432,101.3C480,75,528,85,576,90.7C624,96,672,96,720,96C768,96,816,96,864,85.3C912,75,960,53,1008,53.3C1056,53,1104,75,1152,101.3C1200,128,1248,160,1296,170.7C1344,181,1392,171,1416,165.3L1440,160L1440,0L1416,0C1392,0,1344,0,1296,0C1248,0,1200,0,1152,0C1104,0,1056,0,1008,0C960,0,912,0,864,0C816,0,768,0,720,0C672,0,624,0,576,0C528,0,480,0,432,0C384,0,336,0,288,0C240,0,192,0,144,0C96,0,48,0,24,0L0,0Z"></path></svg>